# xmcd CD database file
#
# Track frame offsets:
#	150
#	77835
#	105623
#	131545
#	156235
#	183433
#	201025
#	215150
#	233805
#	259530
#	277135
#	304207
#	323962
#	342382
#
# Disc length: 4788 seconds
#
# Revision: 0
# Processed by: cddbd v1.5.1PL0 Copyright (c) Steve Scherf et al.
# Submitted via: CDex 1.51
#
DISCID=d212b20e
DTITLE=Jacques Loussier - Classic of Jazz
DYEAR=1900
DGENRE=Jazz
TTITLE0=Ravel: Bolero
TTITLE1=Ravel: Nympheas. I. Allegro
TTITLE2=Ravel: Nympheas. II. Andante
TTITLE3=Ravel: Nympheas. III. Vivace
TTITLE4=Ravel: Nympheas. IV. Largo
TTITLE5=Ravel: Nympheas. V. Presto
TTITLE6=Ravel: Nympheas. VI. Cantabile
TTITLE7=Ravel: Nympheas. VII. Prestissimo
TTITLE8=Bach J.S.: Prelude in C Major from WTC
TTITLE9=Bach J.S.: Air on a G String
TTITLE10=Bach J.S.: Toccata and Fugue in D Minor Fexcort
TTITLE11=Vivaldi: La Primavera (String)
TTITLE12=Vivaldi: L'Estate (Summer)
TTITLE13=Satie: Pas a Pas
EXTD=
EXTT0=
EXTT1=
EXTT2=
EXTT3=
EXTT4=
EXTT5=
EXTT6=
EXTT7=
EXTT8=
EXTT9=
EXTT10=
EXTT11=
EXTT12=
EXTT13=
PLAYORDER=
